<svg xmlns="http://www.w3.org/2000/svg" viewBox="0 0 187.09 118.91"><defs><style>.cls-1{fill:#fff;fill-rule:evenodd;}</style></defs><title>Ресурс 1</title><g id="Слой_2" data-name="Слой 2"><g id="Слой_1-2" data-name="Слой 1"><path class="cls-1" d="M163.06,29.37h24L184.73,42.2H175l-2.26,12.12h8.73l-2.16,12.12h-8.73l-9.34,52.47H146.94l16.12-89.54Zm-5.14,0H143.34L134.51,76.5A35.64,35.64,0,0,1,133,82.66a2.25,2.25,0,0,1-2.05,1.23,1.29,1.29,0,0,1-1.44-1.13,24,24,0,0,1,.62-5.44l9-47.95H124.45l-7.08,37.89C116,74.44,115.21,79.17,115,81.43a14,14,0,0,0,1.13,6.47A9.76,9.76,0,0,0,121,92.82a16.81,16.81,0,0,0,8.52,2,19.29,19.29,0,0,0,8.22-1.65A16.63,16.63,0,0,0,144,88.41a17.87,17.87,0,0,0,3.59-6.06,76.14,76.14,0,0,0,2.37-10.27l8-42.71ZM98.27,70.54c.61-7.29,1.54-16.12,2.87-26.8-3.8,12.22-6.36,21.05-7.7,26.8Zm14.89-41.17-4.52,64.07H95.19l1.43-11.6H91.49l-3.08,11.6H73.83L94.36,29.37Zm-30.4,0H70.44L65.1,58.22,62.23,29.37H50L38,93.44H50.31l5.45-29.16,2.15,29.16H70.75l12-64.07Zm-39.33.51-12.11,29,3,34.6H20.84l-2.46-22.9-4.31,22.9H0L14.68,0H28.75L21.56,51.14,30.5,29.88Z"/></g></g></svg>