<svg id="Layer_1" data-name="Layer 1" xmlns="http://www.w3.org/2000/svg" viewBox="0 0 696.97 243.62"><defs><style>.cls-1{fill:#69bd45;}.cls-2{fill:#83c441;}.cls-3{fill:#377988;}.cls-4{fill:#231f20;}</style></defs><title>logo_Iris</title><g id="MTEXT"><path class="cls-1" d="M349.41,344.91h2.78l51.13-67.2H437v83.88H417v-67.2H414.2l-50.4,67.2H329.35V277.71h20.06Z" transform="translate(-72.02 -175.83)"/><path class="cls-1" d="M471.5,361.59H451.44V277.71h57.17c21.16,0,29.49,8.22,29.49,29.37s-8.58,29.74-29.25,29.74H471.5Zm0-41.45H505c10.15,0,13-4,13-13.06,0-8.22-2.54-12.69-13-12.69H471.5Z" transform="translate(-72.02 -175.83)"/><path class="cls-1" d="M569.42,344.91h2.78l51.13-67.2h33.72v83.88H637v-67.2h-2.78l-50.41,67.2H549.36V277.71h20.06Z" transform="translate(-72.02 -175.83)"/><path class="cls-1" d="M769,332.58c-.12,22.37-5.56,29-30.34,29H701.3c-23.2,0-30.58-7.13-30.58-29.61V308.17c0-24.54,7.86-31.43,32.52-31.43H736.6c19.82,0,32.27,5.68,32.27,29.25H748.8c0-8.82-4.47-12.57-16.07-12.57H707c-13.41,0-16.19,2.3-16.19,15.47v20.79c0,12.82,4.71,15.23,16.19,15.23h25.75c12,0,16.07-2.17,16.07-12.33Z" transform="translate(-72.02 -175.83)"/></g><polygon class="cls-2" points="71.72 132.19 71.72 182.27 36.31 157.23 46.68 149.9 71.72 132.19"/><polygon class="cls-3" points="71.72 111.44 71.72 132.19 46.68 149.9 36.31 157.23 36.31 86.39 55.02 99.62 55.02 99.64 57.06 101.07 71.72 111.44"/><path class="cls-1" d="M129.07,276.9l14.67,10.38V251.85l-4.3-3-.6-.43-5.47-3.86-25-17.71L72.9,201.75V343.43l70.84,50.1V358.1l-35.41-25V262.22L127,275.46h0Z" transform="translate(-72.02 -175.83)"/><polygon class="cls-1" points="174.95 116.62 171.54 122.44 174.93 116.62 174.95 116.62"/><polygon class="cls-1" points="174.95 116.62 171.54 122.44 174.93 116.62 174.95 116.62"/><polygon class="cls-2" points="188.34 43.65 173.68 68.68 173.68 68.7 149.89 109.29 148.43 111.78 146.85 114.48 146.09 115.77 142.56 121.82 142.56 76.02 140.78 74.76 133.96 69.94 129.36 66.69 126.11 64.39 152.93 18.59 160.78 24.14 171.89 32 173.68 33.26 177 35.62 188.34 43.65"/><polygon class="cls-3" points="171.4 122.67 167.6 129.15 177.97 132.19 191.06 136.02 213.4 142.56 213.4 167.6 188.34 185.31 142.56 171.89 142.56 217.69 107.13 242.73 107.13 101.06 110.17 98.92 111.43 98.02 125.63 87.98 142.56 76.02 142.56 121.82 146.09 115.77 146.85 114.48 148.43 111.78 149.89 109.29 173.68 68.7 173.68 68.68 188.34 43.65 195.69 38.45 201.6 34.28 213.4 25.92 213.4 50.98 174.95 116.62 174.93 116.62 171.54 122.44 171.4 122.67"/><polygon class="cls-1" points="174.95 116.62 171.54 122.44 174.93 116.62 174.95 116.62"/><polygon class="cls-2" points="142.56 76.02 125.63 87.98 111.43 98.02 110.17 98.92 107.13 101.06 106.09 100.31 96.76 93.72 86.39 86.39 71.72 76.02 82.09 68.68 107.13 50.98 126.11 64.39 129.36 66.69 133.96 69.94 140.78 74.76 142.56 76.02"/><polygon class="cls-1" points="213.4 142.56 191.06 136.02 177.97 132.19 167.6 129.15 171.4 122.67 171.54 122.44 174.95 116.62 177.97 117.51 213.4 142.56"/><polygon class="cls-2" points="213.4 25.92 201.6 34.28 195.69 38.45 188.34 43.65 177 35.62 173.68 33.26 171.89 32 160.78 24.14 152.93 18.59 177.97 0.88 213.4 25.92"/><polygon class="cls-1" points="107.13 101.06 107.13 242.73 71.72 217.69 71.72 76.02 86.39 86.39 96.76 93.72 106.09 100.31 107.13 101.06"/><polygon class="cls-2" points="107.13 50.98 82.09 68.68 71.72 76.02 67.43 72.98 66.83 72.55 61.35 68.68 36.31 50.98 0.88 25.92 36.31 0.88 107.13 50.98"/><path class="cls-4" d="M286.3,201.75h0a1,1,0,0,0-.09-.37s0,0,0,0a.78.78,0,0,0-.24-.27l0,0L250.5,176a.9.9,0,0,0-1,0l-25,17.71h0a.92.92,0,0,0-.25.27l-26.34,45-18.19-12.85h0L108.84,176a.9.9,0,0,0-1,0L72.39,201l0,0a.78.78,0,0,0-.24.27l0,0a.81.81,0,0,0-.09.37V343.43a.88.88,0,0,0,.37.72l70.84,50.1,35.41,25,.05,0,.05,0h0a.87.87,0,0,0,.36.09.91.91,0,0,0,.36-.09h.05l.05,0,0,0,35.43-25a.9.9,0,0,0,.37-.72V348.9L260.11,362a.93.93,0,0,0,.76-.13l25.06-17.71a.88.88,0,0,0,.37-.72v-25a.5.5,0,0,0,0-.12s0-.08,0-.13l-.07-.16a.53.53,0,0,0-.06-.1.69.69,0,0,0-.17-.17l0,0L250.5,292.62a.91.91,0,0,0-.26-.13l-1.94-.57,37.88-64.66a.89.89,0,0,0,.12-.45V201.75ZM250,177.8l33.9,23.95-23.53,16.64-9.2-6.51-24.68-17.46ZM199.3,240l25.93-44.27,10.42,7.38,23.54,16.65-7.44,12.7-6.82,11.64s0,.07-.05.1l-29.42,50.22V251.85h0a.88.88,0,0,0-.09-.37s0,0,0,0h0a.92.92,0,0,0-.24-.28s0,0,0,0Zm-89.44,93.09,33-23.33v46.66Zm33-45.33v19.83l-33.65,23.79V263.93l17.2,12.16.12.1ZM213,251.85l-33.89,24-33.88-24,33.88-24,18.47,13.05Zm-104.71-74,69.29,49-5.3,3.75-28.58,20.21L109.4,226.48l-35-24.73ZM73.78,203.46l35.15,24.86,33.93,24v33.26l-13.28-9.39h0l-1.91-1.34-.12-.11L108.84,261.5a.87.87,0,0,0-.92-.06.88.88,0,0,0-.48.78v70.84a.92.92,0,0,0,.09.37l0,.05a.87.87,0,0,0,.23.27l0,0,35,24.78v33.26L73.78,343ZM144.62,358.1V253.56l13.27,9.38,20.38,14.4V416.86l-33.65-23.79Zm136-42L241,304.45l3.36-5.73h0l2.64-4.5.42-.71,2.22.64Zm3.94-89.49-38.25,65.3a1.1,1.1,0,0,0-.09.14l-3.28,5.61-.13.22-.12.19v0l-3.8,6.49a.9.9,0,0,0-.06.77.93.93,0,0,0,.58.52l45.16,13.23V343l-24.33,17.2-45.37-13.29a.87.87,0,0,0-.78.14.9.9,0,0,0-.36.71v45.34L180,416.86V277.34L209,256.89l4.71-3.34v44.1a.88.88,0,0,0,.66.85.85.85,0,0,0,.23,0h.12l.17,0,.08,0a.54.54,0,0,0,.15-.09l.07-.05a1.2,1.2,0,0,0,.17-.21L246.46,245a1.17,1.17,0,0,0,0-.11L261,220.09l23.5-16.63Z" transform="translate(-72.02 -175.83)"/></svg>